:SAMPLES-PER-SECOND 30
:FULLY-SPECIFIED
:DEGREES
702
root  56.4918 38.841 13.4675 177.931 -10.8427 179.866
RightUpLeg  2.00089 -21.5705 -17.8494
RightLeg  10.4267 -33.4263 1.97944
RightFoot  2.6852 -0.578083 4.84401
RightToes  2.21189e-009 0 -3.6325e-017
Spine  8.67237 -1.81675 -0.786615
Spine1  8.03499 -2.40701 2.33413
HEad  -10.0285 37.8287 -16.9345
LeftShoulder1  -0.0146926 3.5415 -27.9543
LeftArm  -3.82667 0.779599 -40.9234
LeftForeArm  17.5536 -70.5191 -32.7841
LeftHand  0.0207599 2.64697 -1.52502
RightShoulder  -0.653293 -5.55773 25.0333
RightArm  -11.2247 -23.8276 31.0604
RightForeArm  122.149 70.6958 145.67
RightHand  -0.237058 3.56808 -3.32256
LeftUpLeg  -11.2243 26.9462 9.13283
LeftLeg  18.4728 20.6752 7.77979
LeftFoot  -2.6236 0.28061 -3.47963
LeftToes  -3.01956e-010 3.07132e-011 1.04116e-011
703
root  55.3004 38.7443 13.3982 178.435 -17.0253 179.151
RightUpLeg  4.38277 -25.4061 -21.5897
RightLeg  10.8825 -32.6048 1.06961
RightFoot  2.32007 -0.741415 6.3155
RightToes  2.21189e-009 0 -3.6325e-017
Spine  8.14303 -2.34027 -1.86653
Spine1  7.66323 -3.12067 2.47904
HEad  -9.03101 34.6129 -15.5702
LeftShoulder1  -0.252551 4.22468 -28.9115
LeftArm  -2.74794 2.10837 -40.231
LeftForeArm  20.1756 -71.0586 -33.6137
LeftHand  0.0138939 2.59281 -1.16163
RightShoulder  -0.47855 -5.03496 24.3389
RightArm  -10.6075 -25.4111 29.7022
RightForeArm  121.655 70.9794 145.065
RightHand  -0.190743 2.42884 -3.00548
LeftUpLeg  -12.1799 32.9118 5.7903
LeftLeg  17.9902 14.5855 5.4119
LeftFoot  -1.86044 0.219115 -2.47137
LeftToes  -3.01956e-010 3.07132e-011 1.04116e-011
704
root  54.0541 38.594 13.3868 178.63 -22.9982 178.229
RightUpLeg  6.13843 -29.5013 -24.9815
RightLeg  12.4248 -25.3525 -1.18248
RightFoot  -0.756136 -0.654057 7.14026
RightToes  2.21189e-009 0 -3.6325e-017
Spine  8.00902 -2.28024 -1.69622
Spine1  7.78079 -2.73556 0.924334
HEad  -8.21188 29.6678 -14.2126
LeftShoulder1  -0.104497 3.80168 -28.7555
LeftArm  -1.43508 2.55526 -40.6964
LeftForeArm  20.0979 -70.8354 -33.0709
LeftHand  0.021367 1.24215 -0.802654
RightShoulder  -0.657376 -5.54562 25.5151
RightArm  -9.90314 -26.4933 25.9611
RightForeArm  119.177 70.8688 144.946
RightHand  -0.101305 1.94666 -1.79893
LeftUpLeg  -13.6344 33.6107 1.97608
LeftLeg  19.3953 8.4901 3.61643
LeftFoot  -3.21748 -0.0623088 1.16551
LeftToes  -3.01956e-010 3.07132e-011 1.04116e-011
705
root  52.8864 38.4027 13.4415 178.425 -29.5583 177.791
RightUpLeg  6.27812 -27.2666 -25.4922
RightLeg  14.5016 -16.6487 -3.15322
RightFoot  -5.59207 -0.38324 6.4733
RightToes  2.21189e-009 0 -3.6325e-017
Spine  8.94304 -2.32652 -2.5954
Spine1  7.35492 -3.24506 2.32297
HEad  -8.14354 24.6982 -13.9561
LeftShoulder1  -0.159522 3.9474 -29.8361
LeftArm  0.023401 1.99669 -40.327
LeftForeArm  20.9025 -71.1042 -33.5912
LeftHand  -0.0217638 1.49182 0.414556
RightShoulder  -0.592215 -5.3705 24.9815
RightArm  -8.67251 -27.5473 24.3179
RightForeArm  116.279 71.1897 143.916
RightHand  -0.0943264 1.52679 -1.69522
LeftUpLeg  -14.4443 28.2332 -0.687657
LeftLeg  21.9504 7.65205 3.72567
LeftFoot  -5.27123 -0.134424 3.1186
LeftToes  -3.01956e-010 3.07132e-011 1.04116e-011
706
root  51.7783 38.34 13.4729 177.839 -34.8442 177.142
RightUpLeg  4.52827 -17.7652 -23.7022
RightLeg  18.1646 -9.95914 -3.89756
RightFoot  -7.71793 -0.0475483 0.0733667
RightToes  2.21189e-009 0 -3.6325e-017
Spine  9.54753 -1.9442 -2.13783
Spine1  8.15673 -2.67698 1.43326
HEad  -7.79308 19.4086 -13.0483
LeftShoulder1  0.00622942 3.48685 -29.7029
LeftArm  0.640442 1.15778 -40.973
LeftForeArm  20.7137 -70.7605 -32.7653
LeftHand  -0.0185703 1.19946 0.346781
RightShoulder  -0.625 -5.44523 25.4838
RightArm  -8.44754 -28.0851 23.5231
RightForeArm  112.718 72.2717 141.03
RightHand  0.0482905 2.01546 0.625879
LeftUpLeg  -13.1362 23.0569 -2.77316
LeftLeg  22.797 8.14331 4.07481
LeftFoot  -6.77681 -0.147677 4.70805
LeftToes  -3.01956e-010 3.07132e-011 1.04116e-011
707
root  50.788 38.2961 13.3809 177.751 -38.4323 176.325
RightUpLeg  1.52618 -8.21932 -21.457
RightLeg  23.1966 -2.86862 -1.56458
RightFoot  -8.97139 -0.0326611 -1.06254
RightToes  2.21189e-009 0 -3.6325e-017
Spine  9.46186 -1.23674 -2.49
Spine1  8.83816 -1.89492 0.581055
HEad  -6.68802 15.6275 -11.934
LeftShoulder1  0.0338954 3.40908 -30.0246
LeftArm  0.855714 1.13699 -40.5293
LeftForeArm  20.9762 -70.6662 -32.4926
LeftHand  -0.0117828 0.329044 0.282012
RightShoulder  -0.610851 -5.36981 26.0154
RightArm  -7.83405 -27.1803 23.893
RightForeArm  105.711 73.8431 135.764
RightHand  -0.0270227 3.1592 -0.618459
LeftUpLeg  -11.4183 21.0865 -4.43121
LeftLeg  22.8771 7.07784 3.61566
LeftFoot  -8.33222 -0.0954778 5.53727
LeftToes  -3.01956e-010 3.07132e-011 1.04116e-011
